<?xml version="1.0" encoding="iso-8859-1"?>
<!-- Uploaded to: SVG Repo, www.svgrepo.com, Generator: SVG Repo Mixer Tools -->
<svg height="800px" width="800px" version="1.1" id="Layer_1" xmlns="http://www.w3.org/2000/svg" xmlns:xlink="http://www.w3.org/1999/xlink" 
	 viewBox="0 0 509.18 509.18" xml:space="preserve">
<g>
	<path style="fill:#E9B526;" d="M15.2,421.79l35.2-203.2c-1.2,0-2.4-0.8-2.4-2V68.19c-20,3.6-40,22.4-40,44.4v308
		c0,9.2,3.6,18,8.8,26C14,438.59,13.6,430.19,15.2,421.79z"/>
	<path style="fill:#E9B526;" d="M451.6,144.99c-5.6-18-21.6-30.8-40-32.4c-1.2,0-11.6,0-11.6,0v40h52L451.6,144.99z"/>
</g>
<path style="fill:#CCCCCC;" d="M56.8,468.59h0.4c-6.8,0-13.6-2-20-4.8C42.8,466.99,49.6,468.59,56.8,468.59z"/>
<path style="fill:#F4EFEF;" d="M52,36.59v170l2.8-13.6c4.8-27.2,31.2-48.4,58.8-48.4h8H400v-108H52z"/>
<path style="fill:#E8BB85;" d="M494.4,161.79c-6-7.2-15.2-12-25.2-12.8c-1.6,0-344-0.4-344-0.4h-11.6c-25.6,0-50,20.4-54.4,45.2
	l-40.4,228.4c-2.4,12.4,0.8,24,8,33.2c2.8,3.2,6.4,6,10,8.4c6.4,3.2,12.8,4.8,20,4.8h350.4c25.2,0,50-21.6,54.4-47.6l40.4-227.6
	C504.4,181.39,501.6,170.19,494.4,161.79z"/>
<path style="fill:#EF934A;" d="M253.2,190.19c-0.8-1.2-2-1.6-3.6-1.6h-136c-3.2,0-6.8,3.2-7.6,6.8l-4.4,24.8c-0.4,1.2,0,2.4,0.8,3.2
	c0.8,0.8,2.4,1.6,4,1.6h136c3.2,0,6.8-2,7.6-5.2l4.4-24.8C254.8,192.99,254.4,191.39,253.2,190.19z"/>
<path d="M408,476.59H57.2c-28.8,0-57.2-28-57.2-56v-308c0-25.2,19.6-46.4,46.8-49.6c2-0.4,4,1.2,4.4,3.6c0.4,2-1.2,4-3.6,4.4
	c-23.2,2.8-40,20.4-40,41.6v308c0,24,24.8,48,49.2,48h350.8c2.4,0,4,1.6,4,4S410,476.59,408,476.59z"/>
<path d="M242.8,232.59h-136c-3.2,0-6.4-1.2-8.4-3.6s-2.8-5.6-2.4-8.8l4.4-24.4c1.2-6.4,6.8-11.2,13.2-11.2h136
	c3.2,0,6.4,1.2,8.4,3.6s2.8,5.6,2.4,8.8l-4.4,24.4l0,0C254.8,227.79,249.2,232.59,242.8,232.59z M114,192.19c-2.4,0-5.2,2-5.6,4.4
	l-4.4,24.4c0,0.8,0,1.6,0.4,2.4c0.4,0.4,1.2,0.8,2,0.8h136c2.4,0,5.2-2,5.6-4.4l4.4-24.4c0-0.8,0-1.6-0.4-2.4
	c-0.4-0.4-1.2-0.8-2-0.8H114z"/>
<path d="M244,264.59H92c-2.4,0-4-1.6-4-4s1.6-4,4-4h152c2.4,0,4,1.6,4,4S246,264.59,244,264.59z"/>
<path d="M407.6,476.59H56.8c-13.6,0-25.6-5.6-33.6-15.2c-8.8-10.4-12.4-24.4-9.6-38.8l30.8-174.4c0,0,0,0,0-0.4V36.59
	c0-2.4,1.6-4,4-4h352c2.4,0,4,1.6,4,4v72l0,0h4c22.4,0,42.4,14.8,49.2,36h7.2c14.4,0,26.8,5.2,34.8,15.2c8,9.6,11.2,22.4,8.8,36
	l-40.4,228C462.8,452.19,435.2,476.59,407.6,476.59z M113.6,152.59c-25.2,0-48.4,18.8-52.4,43.2l-40,228c-2,12,0.8,23.6,8,32.4
	c6.8,8,16.4,12.4,27.6,12.4h350.8c24,0,48-21.2,52.4-46.4l40.4-228c2-11.2-0.4-21.6-6.8-29.6c-6.8-8-16.8-12.4-28.8-12.4h-10.4
	c-2,0-3.6-1.2-4-3.2c-5.2-19.2-22.4-32.8-42.4-32.8h-4l0,0v29.2c0.8,0.8,1.2,1.6,1.2,2.8c0,2.4-1.6,4-4,4H113.6V152.59z M52,40.59
	v162l1.6-8.4c4.8-28,31.6-49.6,60.4-49.6h282v-104H52z"/>
<path d="M368,80.59H92c-2.4,0-4-1.6-4-4s1.6-4,4-4h276c2.4,0,4,1.6,4,4S370,80.59,368,80.59z"/>
<path d="M368,112.59H212c-2.4,0-4-1.6-4-4s1.6-4,4-4h156c2.4,0,4,1.6,4,4S370,112.59,368,112.59z"/>
<path d="M188,112.59H92c-2.4,0-4-1.6-4-4s1.6-4,4-4h96c2.4,0,4,1.6,4,4S190,112.59,188,112.59z"/>
</svg>